<?xml version="1.0" standalone="no"?>
<!DOCTYPE svg PUBLIC "-//W3C//DTD SVG 20010904//EN"
 "http://www.w3.org/TR/2001/REC-SVG-20010904/DTD/svg10.dtd">
<svg version="1.0" xmlns="http://www.w3.org/2000/svg"
 width="500.000000pt" height="500.000000pt" viewBox="0 0 500.000000 500.000000"
 preserveAspectRatio="xMidYMid meet">

<g transform="translate(0.000000,500.000000) scale(0.100000,-0.100000)"
fill="#000000" stroke="none">
<path d="M2205 4854 c-259 -39 -489 -117 -678 -230 -156 -94 -333 -246 -447
-384 -71 -86 -171 -240 -164 -251 3 -5 0 -9 -6 -9 -13 0 -80 -139 -121 -253
-187 -518 -102 -1064 241 -1549 104 -147 238 -274 530 -500 146 -113 296 -238
335 -279 114 -120 184 -241 249 -427 45 -130 56 -151 105 -195 94 -85 261 -71
338 29 14 19 48 96 75 172 71 199 163 350 285 463 26 24 161 132 298 239 138
107 283 226 324 264 257 247 434 568 513 926 19 90 22 134 22 310 0 176 -3
220 -22 310 -94 434 -333 800 -688 1056 -85 61 -347 201 -389 207 -11 2 -29 8
-40 14 -28 15 -117 40 -232 64 -77 17 -141 22 -298 24 -110 2 -213 1 -230 -1z
m439 -320 c182 -32 369 -109 539 -221 92 -61 268 -236 336 -333 119 -171 204
-376 236 -570 19 -118 19 -337 1 -450 -83 -504 -461 -936 -950 -1085 -141 -43
-248 -58 -406 -58 -165 0 -282 17 -423 64 -235 77 -467 232 -615 409 -117 139
-198 282 -255 446 -58 167 -72 256 -71 454 0 198 16 292 77 463 19 53 33 97
31 97 -3 0 0 6 6 13 6 6 32 49 58 95 70 123 127 197 227 297 231 230 522 365
860 399 70 7 257 -3 349 -20z"/>
<path d="M1549 3887 c-46 -35 -50 -88 -10 -128 27 -27 35 -29 100 -29 69 0 71
-1 77 -27 4 -16 45 -170 91 -343 46 -173 98 -367 114 -430 40 -153 46 -161
107 -153 34 4 58 1 80 -11 27 -14 81 -16 421 -16 279 0 397 3 416 12 17 8 39
37 65 90 22 43 40 81 40 83 0 3 -155 5 -343 5 -320 0 -345 1 -360 18 -22 24
-21 55 1 75 17 15 58 17 391 17 l372 0 90 183 c88 178 90 183 86 240 -6 66
-37 115 -90 145 -32 17 -258 21 -1138 22 l-146 0 -13 48 c-35 137 -52 182 -72
197 -29 19 -254 21 -279 2z"/>
<path d="M2105 2614 c-11 -8 -29 -13 -41 -10 -28 7 -87 -43 -114 -99 -25 -51
-29 -137 -8 -162 19 -23 88 -11 139 23 36 24 45 37 50 69 9 56 65 105 119 105
47 0 49 8 13 45 -47 46 -118 60 -158 29z"/>
<path d="M2625 2616 c-49 -21 -97 -66 -86 -80 7 -8 4 -34 -10 -80 -24 -80 -17
-98 30 -70 32 19 35 24 46 89 8 45 21 65 42 65 12 0 13 -8 7 -42 -9 -48 -9
-107 1 -117 4 -3 20 9 37 27 27 31 28 35 14 51 -18 20 -21 73 -6 102 15 27 66
26 80 -2 8 -15 8 -29 1 -51 -14 -39 -14 -38 2 -38 7 0 26 14 42 30 28 29 29
32 15 58 -26 45 -76 72 -134 72 -28 -1 -64 -7 -81 -14z"/>
<path d="M2714 2546 c-3 -8 0 -25 6 -37 11 -20 13 -20 22 -5 10 18 2 56 -13
56 -5 0 -12 -6 -15 -14z"/>
<path d="M2203 2498 c-26 -28 -37 -69 -29 -104 10 -38 46 -29 69 19 19 41 47
50 48 15 0 -22 1 -22 9 -3 14 34 11 45 -12 42 -17 -1 -22 3 -23 23 0 34 -34
38 -62 8z"/>
<path d="M2848 2474 c-5 -4 -8 -26 -8 -48 1 -33 3 -38 11 -23 11 19 8 83 -3
71z"/>
<path d="M2698 2388 c-50 -53 -81 -60 -86 -21 l-3 22 -52 -27 c-29 -15 -54
-28 -57 -30 -3 -2 11 -19 32 -37 67 -62 170 -57 249 13 42 38 42 39 26 62 -9
14 -17 35 -17 47 0 38 -40 26 -92 -29z"/>
<path d="M2091 2344 c-23 -18 -55 -36 -71 -39 -46 -10 -44 -22 5 -40 31 -13
57 -16 87 -11 50 8 123 48 138 76 13 24 -2 35 -29 20 -28 -15 -49 -12 -69 8
-18 18 -20 17 -61 -14z"/>
<path d="M2170 333 c-232 -16 -409 -47 -439 -77 -36 -36 23 -63 204 -94 129
-21 770 -24 906 -4 226 33 301 78 196 116 -133 49 -581 79 -867 59z"/>
</g>
</svg>
